<?xml version="1.0" encoding="utf-8"?>
<!-- Generator: Adobe Illustrator 22.0.0, SVG Export Plug-In . SVG Version: 6.00 Build 0)  -->
<svg version="1.1" id="Calque_1" xmlns="http://www.w3.org/2000/svg" xmlns:xlink="http://www.w3.org/1999/xlink" x="0px" y="0px"
	 viewBox="0 0 432 432" style="enable-background:new 0 0 432 432;" xml:space="preserve">
<style type="text/css">
	.st0{fill:#BE1622;}
	.st1{fill:#BA874D;}
	.st2{fill:#008D36;}
	.st3{fill:#634E42;}
	.st4{fill:#7D4E24;}
	.st5{fill:#E6332A;}
	.st6{fill:#E30613;}
	.st7{fill:#EDEDED;}
	.st8{fill:#3AAA35;}
	.st9{fill:#3C3C3B;}
	.st10{fill:#575756;}
	.st11{fill:#82AFD6;}
	.st12{fill:#1D71B8;}
	.st13{fill:#36A9E1;}
	.st14{fill:#066938;}
	.st15{fill:#B9B8B9;}
	.st16{fill:#A3A2A3;}
	.st17{fill:#D9D8D9;}
	.st18{fill:#CDCBCC;}
	.st19{fill:#80A1C5;}
	.st20{fill:#F8C3C4;}
	.st21{fill:#739AC0;}
	.st22{fill:#6391BA;}
	.st23{fill:#B093C3;}
	.st24{fill:#9E79B5;}
	.st25{fill:#BA9BC9;}
	.st26{fill:#F2F2F2;}
	.st27{fill:#FFFFFF;}
	.st28{fill:#E8E6E6;}
	.st29{fill:#7097B8;}
	.st30{fill:#95C11F;}
	.st31{fill:#47382F;}
	.st32{fill:#00A19A;}
	.st33{fill:#8F683B;}
	.st34{fill:#A4292F;}
	.st35{fill:#C1292E;}
	.st36{fill:#C49253;}
	.st37{fill:#AD8048;}
	.st38{fill:#D9A84A;}
	.st39{fill:#056734;}
	.st40{fill:#E20D18;}
	.st41{fill:#8CA6CA;}
	.st42{fill:#F9B03D;}
	.st43{fill:#808181;}
	.st44{fill:#E00825;}
	.st45{fill:#1861A9;}
	.st46{fill:#109F3D;}
	.st47{fill:#F39200;}
	.st48{fill:#936037;}
	.st49{fill:#683C11;}
</style>
<g>
	<g>
		<path class="st2" d="M186.1,153c0.5-0.4,0.9-0.9,1.2-1.3c1.2-1.7,2.2-3.6,3-5.6c2.6-6.4,5.5-12.7,8.3-19.1
			c0.3-0.7,0.5-1.4,0.6-2.2c0.3-2.8,1-5.5,2.2-8.1c0.7-1.5,1.6-2.9,2.8-4.2c3-3,7.2-3.5,10.8-1.4c3.9,2.3,5.5,5.8,5.5,10.2
			c0,0.2,0,0.4-0.1,0.6c-0.2,0.7-0.5,1-1.1,0.9c-0.6-0.1-1-0.4-1-1c-0.1-1.2-0.3-2.4-0.7-3.5c-0.7-1.8-1.7-3.3-3.4-4.2
			c-1.6-0.9-3-0.8-4.4,0.5c-1,0.9-1.6,2-2.1,3.2c-1.3,3.2-1.9,6.6-1.9,10.1c-0.1,3.7,0.4,7.3,1.6,10.9c0.4,1.1,0.9,2.1,1.7,3
			c1.6,1.8,3.2,2.3,5.5,1.5c1.4-0.5,2.6-1.4,3.7-2.4c2.4-2.1,4.4-4.5,6.3-7.1c1.4-1.9,2.8-3.9,4.2-5.8c0.7-1,0.6-0.9-0.2-1.6
			c-2.9-2.2-4.7-5.2-5.2-8.8c-0.6-4,0.4-7.7,3.1-10.8c2.4-2.7,5.4-3.6,8.9-2.6c3.3,1,6,3,8.4,5.4c2.9,2.9,4.5,6.5,5.5,10.5
			c0.1,0.5,0.3,1,0.4,1.5c0,0,0.1,0,0.2,0.1c0.7-0.4,1.5-0.9,2.3-1.4c0.7-0.4,1.4-0.8,2.1-1.2c2.4-1.3,4.4-0.6,6.1,0.8
			c1.1,1,1.7,2.2,2.2,3.5c0.8,2.2,1,4.5,1.2,6.8c0,0.4,0.1,0.9,0.1,1.4c0.5-0.1,0.5-0.6,0.6-0.8c0.8-2.2,1.7-4.3,3-6.3
			c0.4-0.6,0.7-1.1,1.2-1.6c1.5-1.6,3.6-1.7,5.3-0.3c0.9,0.7,1.5,1.7,2,2.8c0.8,1.8,1.2,3.8,1.5,5.8c0,0.1,0,0.2,0.1,0.4
			c0.5-0.2,0.5-0.7,0.7-1.1c2.2-5,4.9-9.7,8.4-13.9c0.7-0.9,1.5-1.8,2.4-2.5c2.5-2.1,5.3-1.2,6.7,1c0.9,1.4,1.2,2.9,1.3,4.6
			c0.2,3.3-0.3,6.5-0.8,9.8c-0.9,5.6-2,11.2-2.7,16.8c-0.4,3.5-0.6,6.9-0.1,10.4c0.1,0.8,0.3,1.6,0.8,2.4c0.8-0.7,1.2-1.5,1.6-2.3
			c1.4-2.7,2.5-5.6,3.4-8.5c1.5-4.9,3.1-9.8,4.8-14.7c0.3-0.8,0.3-1.5,0.2-2.4c-0.5-4.5,0-8.9,1.8-13c0.7-1.8,1.7-3.3,3.1-4.7
			c3.8-3.7,9.3-3,12.1,1.5c1.1,1.8,1.8,3.8,1.7,6c-0.1,2.1-1,3.6-2.9,4.4c-1.9,0.9-3.9,1.4-5.9,1.8c-0.7,0.2-1.5,0.3-2.3,0.2
			c-0.6,0-0.8,0.2-0.8,0.8c0,1.9,0.2,3.8,0.7,5.7c0.7,2.3,1.8,4.5,3.1,6.6c1.3,1.9,2.4,2.6,5.1,1.4c1.9-0.8,3.3-2.2,4.6-3.7
			c1.8-2.1,3.2-4.5,4.6-6.9c0.2-0.4,0.4-0.9,0.8-1.1c0.5-0.3,1-0.3,1.5,0c0.5,0.3,0.5,0.8,0.3,1.3c-1.4,3.2-2.9,6.3-5.2,9
			c-1.1,1.3-2.3,2.4-3.7,3.4c-4.3,3-9.4,2.7-13.3-1c-1.5-1.4-2.6-3-3.5-4.9c-0.2-0.4-0.4-0.8-0.6-1.2c-0.4,0.4-0.5,1-0.6,1.5
			c-1.3,4.3-2.5,8.6-3.8,12.9c-0.7,2.4-1.7,4.7-2.7,7c-0.4,0.9-0.9,1.7-1.5,2.5c-1.6,1.9-3.9,2.3-6,0.9c-1-0.7-1.7-1.7-2.3-2.7
			c-1.1-2.2-1.6-4.6-1.9-7c-0.5-4.3-0.1-8.5,0.6-12.7c1-6.4,2.6-12.7,4.1-19c0.3-1.4,0.6-2.7,0.6-4.2c-0.9,0.2-1.5,0.7-2,1.2
			c-1.4,1.2-2.6,2.6-3.7,4.1c-3.7,5.3-6.4,11.1-7.5,17.5c-0.2,0.9-0.2,1.7-0.3,2.6c-0.1,1-0.5,1.4-1.5,1.5c-1.3,0.2-2.5-0.5-3-2
			c-0.6-1.7-1-3.5-1.2-5.2c-0.3-3-0.6-6-0.9-9.1c0-0.5-0.1-0.9-0.3-1.5c-0.8,0.3-1.2,1-1.6,1.7c-1.1,1.7-1.9,3.5-2.5,5.4
			c-1.3,4-2.3,8.2-2.2,12.4c0,1.2-0.5,1.8-1.7,2c-1.5,0.3-3-0.4-3.8-1.9c-0.9-1.5-1.3-3.2-1.6-4.9c-0.3-2.2-0.4-4.4-0.5-6.6
			c-0.1-3.3-0.1-6.6-0.5-9.8c-0.3-2.3-0.1-2.2-2.2-1.3c-1.2,0.5-2.3,1.2-3.4,1.7c-0.5,0.3-0.7,0.6-0.7,1.2c0.3,2.7,0.4,5.3,0.1,8
			c-0.3,2.8-0.9,5.6-2,8.2c-0.7,1.7-1.7,3.3-3.1,4.5c-2.4,2.2-5.3,2.7-8.3,1.3c-2.1-1-3.7-2.6-5-4.6c-1.6-2.6-2.3-5.4-2.5-8.4
			c-0.1-0.8,0-1.7-0.2-2.6c-0.5,0.3-0.7,0.8-1,1.2c-2.1,3.1-4.3,6.1-6.9,8.8c-1,1-2,2-3.1,2.8c-4.6,3.2-9.9,2.7-13.8-1.3
			c-2.5-2.5-3.8-5.7-4.6-9.1c-0.2-0.6-0.3-1.3-0.4-2.1c-0.4,0.3-0.5,0.7-0.6,1c-2.1,4.9-4,9.8-6,14.8c-0.7,1.9-1.6,3.8-2.6,5.5
			c-0.4,0.6-0.7,1.2-1.2,1.8c-1,1.4-2.5,2.1-4.8,1.3c-1.9-0.6-3.3-1.9-4.5-3.5c-1.9-2.4-2.7-5.2-3.2-8.2c-0.2-1.3-0.4-2.7-0.5-4
			c0-0.3,0-0.6-0.3-0.8c-0.3,0.2-0.3,0.6-0.4,0.9c-0.8,2.1-1.6,4.1-2.8,6c-0.8,1.2-1.7,2.3-2.7,3.3c-2.1,1.9-4.5,2.3-7.1,1.3
			c-2-0.7-3.5-2-4.8-3.6c-1.4-1.7-2.5-3.6-3.2-5.7c-1.8-5.2-2.6-10.5-1.9-15.9c0.3-2.6,1.2-5,2.5-7.2c1.1-1.8,2.5-3.4,4.6-4
			c3.1-0.9,5.9-0.2,8.2,2c2.4,2.3,3.3,5.2,2.9,8.4c-0.2,1.7-1.2,3.1-2.5,4.3c-2.3,2-5,2.9-8,2.9c-1.6,0-1.3-0.1-1.2,1.3
			c0.5,4,1.6,7.7,3.5,11.2c0.4,0.8,1,1.6,1.6,2.3c0.6,0.7,0.8,0.7,1.7,0.4c1-0.4,1.8-1.1,2.6-1.9c1.2-1.2,2-2.7,2.8-4.2
			c1.8-3.7,3-7.7,4.2-11.6c0.3-0.9,0.2-1.7,0.2-2.6c0.3-5.8,1-11.6,2.6-17.3c1.3-4.5,3.2-8.8,6.2-12.5c1-1.3,2.2-2.5,3.5-3.4
			c2.9-2,6-1.5,8,1.4c1.9,2.6,2.4,5.6,2.1,8.8c-0.6,5.1-2.9,9.3-6.1,13.2c-2.4,2.9-5.3,5.2-8.2,7.5c-0.8,0.6-1.2,1.3-1.2,2.4
			c-0.2,5-0.1,10.1,0.5,15.1c0.4,2.7,0.9,5.3,1.7,7.8C185.1,151.4,185.4,152.3,186.1,153z M230,123.6c0.2-0.6,0.3-1,0.4-1.4
			c0.4-1.2,0.8-2.4,1.6-3.5c0.6-0.9,1.4-1.6,2.5-1.8c1.3-0.3,2.2,0.3,2.4,1.6c0.1,0.7,0,1.4-0.1,2.2c-0.2,1.9-0.4,3.7-0.5,5.6
			c-0.1,0.8,0,0.8,0.7,0.8c0.8,0,1.7,0,2.5-0.2c2.7-0.6,5-2,7.3-3.3c0.4-0.2,0.5-0.6,0.4-1c-0.5-2.8-1.2-5.6-2.6-8.2
			c-2-3.6-4.9-6.2-8.8-7.7c-2-0.8-3.8-0.3-5.2,1.3c-0.3,0.3-0.7,0.7-0.9,1.1c-2,2.9-2.7,6.2-1.9,9.7
			C228,120.6,228.7,122.1,230,123.6z M182.9,121.7c0.3,0.1,0.5-0.1,0.6-0.2c1.7-1.5,3.5-3,5-4.6c2.7-2.9,4.9-6.1,6.2-9.9
			c0.8-2.2,1.1-4.5,0.6-6.8c-0.3-1.3-0.7-2.5-1.6-3.6c-0.7-0.7-1.2-0.8-2-0.3c-0.5,0.3-1,0.8-1.4,1.3c-1.4,1.6-2.5,3.5-3.4,5.5
			C184.3,109,183.6,115.3,182.9,121.7z M247.3,126c-0.9,0.5-1.7,0.9-2.5,1.4c-2.5,1.3-5,2.2-7.9,2.1c-0.7,0-0.8,0.3-0.8,0.8
			c0,2.7,0.3,5.3,0.9,7.9c0.3,1.4,0.7,2.9,1.5,4.2c1.3,2.2,2.4,2.9,4.8,0.7c1.5-1.3,2.3-3,2.9-4.9c1.2-3.8,1.5-7.6,1.4-11.6
			C247.5,126.5,247.5,126.3,247.3,126z M158.8,127.8c0,0.7,0,1.1,0,1.6c0,0.4,0.2,0.6,0.6,0.6c3,0,5.6-1,7.6-3.4
			c2-2.5,1-6.6-1.1-8.2c-1.6-1.2-3.5-1-4.7,0.7c-0.5,0.7-0.8,1.4-1.1,2.2C159.3,123.5,158.9,125.8,158.8,127.8z M319.7,119.8
			c0-1.9-0.7-3.5-2.2-4.7c-0.8-0.7-1.4-0.6-2.3-0.1c-0.9,0.6-1.5,1.5-2,2.5c-1.1,2.1-1.7,4.4-2.1,6.7c-0.1,0.7,0,0.9,0.7,0.7
			c1.7-0.3,3.4-0.6,5.1-1.2C318.9,123,319.7,121.9,319.7,119.8z"/>
		<path class="st2" d="M126.9,114.8c-0.7,1.2-1,2.5-1.4,3.9c-1.4,4.9-2.3,9.9-3.4,14.8c-0.6,2.9-1.2,5.7-2.2,8.5
			c-0.4,1.1-0.9,2.2-1.6,3.2c-1.3,1.8-3.2,2.4-5.3,1.6c-1.3-0.5-2.3-1.4-3.2-2.4c-1.8-2.1-3.1-4.6-4.2-7.2c-1.8-4.5-3-9.3-3.9-14.1
			c-0.8-4.4-1.5-8.7-1.4-13.2c0-1.6,0.3-3.1,0.7-4.6c0.4-1.6,2-2.1,3.4-1c0.7,0.5,1,1.2,1.2,2c0.5,1.9,0.6,3.9,0.9,5.9
			c0.7,6.2,2.1,12.4,3.8,18.4c1,3.5,1.9,7.1,3.3,10.5c0.3,0.9,0.7,1.7,1.2,2.5c0.3,0.5,0.6,0.5,0.9,0.1c0.6-0.7,1.1-1.5,1.5-2.3
			c1.1-2.4,1.8-5,2.4-7.6c1.5-6.5,2.8-13,4.6-19.3c0.7-2.4,1.4-4.8,2.2-7.2c0.2-0.6,0.4-1.1,0.7-1.7c0.7-1.3,1.7-1.7,3.1-1.2
			c1.2,0.4,2,1.3,2.4,2.5c0.6,1.8,0.9,3.7,0.9,5.7c0.1,3.3-0.1,6.6-0.3,9.8c-0.4,5.6-0.7,11.2-0.4,16.8c0.2,4.4,0.9,8.7,2.1,12.9
			c0.1,0.4,0.2,0.8,0.5,1.1c0.5-0.1,0.7-0.5,1-0.8c1.7-2.1,2.9-4.6,4-7.1c1.8-4.2,2.9-8.6,3.8-13.1c1.1-5.3,2-10.6,2.6-16
			c0.3-3.3,0.5-6.6,0.8-9.9c0.2-2.1,0.2-4.2,0.7-6.2c0.2-0.6,0.4-1.1,1.2-1.2c0.9-0.1,1.6,0.5,1.7,1.4c0.1,1.2-0.2,2.3-0.3,3.5
			c-0.3,4.2-0.7,8.4-1.1,12.5c-0.4,4.3-1.1,8.5-1.8,12.7c-0.8,4.4-1.5,8.8-2.8,13.1c-1.1,3.6-2.5,7-4.3,10.3
			c-0.6,1.1-1.3,2.2-2.2,3.2c-2.2,2.5-5.6,2.7-8.1,0.4c-1.9-1.8-2.9-4.2-3.5-6.7c-1-4.3-1.3-8.7-1.4-13.1
			c-0.1-5.2,0.3-10.4,0.8-15.6C126.5,118.5,126.7,116.7,126.9,114.8z"/>
	</g>
	<path class="st0" d="M269.6,252.2c0.1-1.4,0.3-2.7,0.4-4c0.2-2.6,0.7-5.2,1.7-7.7c0.5-1.2,1.1-1.6,2.1-1.5c0.9,0.1,1.5,0.9,1.7,2
		c0.6,4,0.7,8,0.7,12.1c0,1.7-0.2,1.3,1.3,1.7c4.7,1.3,9.4,2.3,14.2,2.8c5.9,0.7,11.8,0.5,17.6-1.1c3.5-1,6.8-2.4,9.7-4.6
		c4.5-3.5,6.8-8.1,7.4-13.8c0.1-1.2,0-2.3-0.3-3.5c-1.1-4.7-5.6-8-11.2-6.3c-2.1,0.6-3.9,1.8-5.3,3.5c-0.9,1.1-1.7,2.2-2.4,3.5
		c-0.4,0.7-0.8,0.9-1.4,0.7c-0.7-0.2-1.1-0.7-1.1-1.4c0-0.4,0.2-0.8,0.3-1.1c2.2-4.7,5.8-7.2,10.9-7.9c5.9-0.8,12.5,3.5,13.4,10.4
		c0.7,5.8-1.1,10.8-4.8,15.2c-1.9,2.2-4.2,3.8-6.7,5.2c-4.9,2.6-10.2,3.9-15.7,4.3c-8.4,0.7-16.6-0.7-24.6-2.8
		c-0.4-0.1-0.7-0.2-1.1-0.2c-0.2,0.3-0.2,0.7-0.2,1.1c-0.2,10-0.4,20,0,30c0.2,6.1,0.5,12.1,1.4,18.2c0.6,4.3,1.7,8.4,3.7,12.2
		c0.6,1.1,1.2,2.1,2.1,2.9c1.3,1.3,2.6,1.5,4.3,0.7c1.2-0.6,2.1-1.4,3-2.4c1.2-1.4,2.1-2.9,2.9-4.5c2.3-4.8,4.2-9.8,6.1-14.7
		c3.2-8.3,6.3-16.7,9.3-25.2c0.2-0.6,0.5-1.3,0.8-1.9c0.3-0.8,0.9-1,1.5-0.7c0.6,0.3,0.7,0.6,0.5,1.5c-1.5,4.8-3.2,9.6-4.9,14.4
		c-2.7,7.6-5.3,15.1-8.6,22.5c-1.2,2.6-2.4,5.2-3.9,7.7c-0.9,1.6-2,3-3.3,4.2c-2.9,2.6-6.3,3-9.7,1.1c-2.8-1.6-4.8-3.9-6.3-6.6
		c-2.1-3.6-3.3-7.4-4.1-11.5c-0.7-3.2-1.1-6.5-1.3-9.7c0-0.4-0.1-0.8-0.1-1.2c0-0.1-0.1-0.1-0.2-0.3c-0.6,2.2-1.2,4.3-1.8,6.4
		c-1.6,6.2-3.2,12.4-4.8,18.6c-0.6,2.2-1.3,4.3-2.4,6.3c-1,1.8-2.3,3.3-4.1,4.3c-2.5,1.4-4.9,1.4-7.4,0.1c-1.7-0.9-3-2.2-4-3.7
		c-2-2.8-3.1-6-3.6-9.4c-0.8-5.5-0.7-11-0.3-16.5c0.6-7.2,1.8-14.3,3.4-21.3c0.6-2.5,1.5-4.9,2.2-7.3c0.5-1.7,0.5-1.7-1.2-2.2
		c-0.9-0.2-1.7-0.4-2.6-0.5c-0.4,0-0.6,0.1-0.6,0.5c0,0.1,0,0.2,0,0.2c0.3,6.4-0.8,12.7-2.2,18.9c-2.3,10.2-5.8,20-10.7,29.3
		c-1.2,2.3-2.5,4.5-4.2,6.4c-2.1,2.5-4.5,4.5-7.6,5.3c-3.5,1-6.4,0-8.5-2.9c-1.6-2.3-2.6-4.9-3.1-7.6c-0.9-5.3-0.7-10.6-0.1-15.9
		c0.6-5.5,1.7-10.9,3.5-16.3c-0.5,0.4-0.6,0.8-0.8,1.2c-1.4,2.7-2.8,5.4-4.5,7.9c-1,1.5-2,2.9-3.3,4.1c-0.8,0.8-1.8,1.5-2.8,2
		c-2.3,0.9-4.3,0.6-6.1-1.1c-0.9-0.8-1.6-1.8-2.1-2.9c-0.2-0.3-0.2-0.8-0.7-1c-0.6,2-1.2,4-1.7,6c-0.9,3-1.7,5.9-2.9,8.8
		c-0.4,0.9-0.8,1.8-1.3,2.6c-1.9,3-5,4.3-8.6,3.3c-3.4-0.9-6-3.1-7.9-6.1c-2-3.2-3.2-6.7-4.1-10.3c-0.2-0.9-0.4-1.7-0.6-2.7
		c-0.5,1-0.4,2-0.5,2.9c-0.7,5.3-1.3,10.5-2,15.8c-0.6,4.7-1.3,9.3-2.6,13.9c-0.4,1.3-0.8,2.5-1.6,3.6c-1,1.4-2.2,2.5-4,2.7
		c-1.8,0.2-3.3-0.5-4.5-1.7c-1.2-1.2-2-2.7-2.6-4.3c-1.4-3.3-2-6.7-2.1-10.3c-0.2-4.1,0.2-8.2,0.8-12.3c0.8-5.7,1.7-11.5,2.4-17.2
		c0.3-2.5,0.5-5,0.3-7.5c-0.1-1.5-0.4-2.9-1-4.3c-0.6-1.5-1.3-1.7-2.7-1.1c-1.1,0.5-2,1.2-2.9,2c-3.6,3.3-5.8,7.5-7.3,12.1
		c-1.1,3.4-1.6,6.9-1.6,10.5c0,2.1,0.6,4.2,1,6.3c0.7,3.3,1.4,6.6,2.1,10c0.3,1.4,0.1,1.9-0.9,2.4c-1.1,0.6-2.3,0.4-3.1-0.4
		c-0.5-0.5-0.8-1.1-1.1-1.7c-1.4-3.1-2.6-6.3-3.7-9.5c-1.9-5.9-3-11.9-3.5-18.1c-0.8-10.2,0.2-20.3,2.5-30.2c0-0.2,0.1-0.4,0-0.6
		c-0.1-0.2-0.3-0.1-0.4,0c-5.1,2.4-10,5-14.5,8.3c-1.3,1-2.6,2-3.5,3.4c-0.3,0.5-0.7,0.6-1.3,0.5c-0.7-0.1-1-0.7-0.7-1.3
		c0.2-0.5,0.6-0.9,0.9-1.3c1.8-2.2,4-4,6.4-5.6c4.1-2.9,8.6-5.1,13.1-7.2c0.8-0.4,1.2-0.9,1.5-1.7c2.2-7.1,5.2-13.8,9.8-19.8
		c4.2-5.5,9.3-9.9,15.7-12.7c2.6-1.1,5.2-1.8,8-1.6c3.3,0.2,6.1,1.6,8.1,4.2c2,2.6,2.3,5.4,1,8.4c-0.7,1.7-1.8,3.1-3.1,4.4
		c-2.1,2.3-4.5,4.1-7.2,5.8c-5.1,3.2-10.5,5.7-16,8.2c-2.8,1.2-5.6,2.4-8.5,3.6c-0.6,0.3-1,0.6-1.2,1.3c-1.8,6.4-3.1,12.9-3.6,19.5
		c-0.4,5-0.4,10,0,15c0.1,0.7,0.2,1.4,0.3,2.2c0.3-0.5,0.4-0.9,0.5-1.2c1.4-5.4,3.8-10.2,7.6-14.4c0.9-1.1,2-2,3.1-2.8
		c3.6-2.5,7.4-1.3,9.8,1.4c1.8,2.1,2.7,4.6,3,7.3c0.4,3.2,0.1,6.4-0.3,9.6c-0.8,6.1-1.7,12.2-2.4,18.3c-0.7,6-0.7,12,0.1,17.9
		c0.1,1.1,0.4,2.1,0.9,3.1c0.3,0.6,0.6,0.7,1.1,0.3c0.8-0.6,1.4-1.4,1.8-2.3c0.8-1.7,1.3-3.6,1.7-5.5c0.8-3.9,1.4-8,1.9-12
		c0.6-4.7,1.3-9.4,2.1-14.1c0.6-3.7,1.1-7.3,1.5-11c0.3-2.3,0.2-4.7,0.3-7.1c0.1-2.7,0.5-5.4,1.4-8c0.9-2.5,2.2-4.6,4.3-6.2
		c2.9-2.1,6-2.3,9-0.1c1.5,1.1,2.9,2.4,3.8,4.1c2.4,4.3,0.8,9-3.7,10.9c-2.1,0.9-4.4,1.4-6.7,1.8c-1.7,0.3-1.4,0-1.3,1.6
		c0.2,3.1,0.5,6.2,1.1,9.3c0.7,3.7,1.6,7.4,3.1,10.9c0.9,2.1,2.1,4,3.4,5.9c0.3,0.5,0.7,0.9,1.2,1.3c0.7,0.6,1.4,0.6,2.2,0.2
		c0.8-0.4,1.3-1,1.8-1.7c1.1-1.6,1.8-3.3,2.5-5.1c1.9-4.9,3.3-9.9,4.8-14.9c0.2-0.5,0.1-1,0.1-1.5c-0.4-6.7,1-13,5-18.4
		c1.5-2,3.3-3.5,5.5-4.5c3-1.3,6-1.3,8.9,0c2.3,1,4.2,2.6,5.6,4.7c0.2,0.3,0.4,0.5,0.5,0.8c0,0,0.1,0,0.2,0.1
		c0.4-0.8,0.9-1.5,1.4-2.3c0.5-0.9,1.2-1.4,2.2-1.6c1.4-0.3,2.6,0.5,2.8,1.9c0.1,0.8,0.1,1.7-0.1,2.5c-0.5,2.3-1.3,4.5-2.1,6.7
		c-2,5.2-3.6,10.6-4.5,16.1c-1.1,6.7-1.5,13.3-0.7,20.1c0.3,2.1,0.4,4.3,1.2,6.3c0.2,0.5,0.4,1,0.7,1.5c0.9,1.5,2.1,1.9,3.8,1.4
		c2-0.6,3.4-1.8,4.8-3.3c1.5-1.6,2.6-3.4,3.7-5.3c3.3-5.9,5.7-12.2,7.7-18.7c2.1-6.8,3.6-13.7,4.5-20.7c0.3-2.9,0.5-5.8,0.5-8.7
		c0-1.3,0-1.3-1.3-1.4c-1.7-0.1-3.4-0.4-5.1-0.8c-1.6-0.4-3-1-4.4-1.9c-3.6-2.3-4.9-5.5-4.4-9.6c0.2-1.7,0.8-3.3,1.8-4.7
		c1.5-2.1,3.7-2.8,6.1-1.9c1.8,0.7,3.2,1.9,4.5,3.3c2.6,3.1,4.1,6.8,4.8,10.7c0.1,0.7,0.2,1.3,0.3,2c0.2,1,0.2,1,1.1,1
		c1.7,0.1,3.3,0.3,5,0.7c0.4,0.1,0.8,0.2,1.3,0.4c2.4,0.9,3.6,2.8,3.5,5.3c0,1.3-0.3,2.5-0.6,3.8c-1.9,7.7-3.2,15.4-4,23.3
		c-0.6,5.9-0.7,11.7,0.2,17.6c0.3,2.1,0.6,4.1,1.2,6.1c0.3,0.8,0.6,1.7,1.1,2.4c0.9,1.2,1.8,1.5,3.2,1.1c1.2-0.4,2.2-1.2,3-2.1
		c1.1-1.3,1.8-2.8,2.4-4.4c1.2-3.3,2-6.7,2.9-10.1c2.3-8.1,4.6-16.1,7-24.2c0.2-0.7,0.3-1.4,0.3-2.1c-0.3-8.8,0-17.6,0.3-26.4
		c0-1.1,0.1-2.2,0.1-3.2c0-0.5-0.1-0.8-0.6-1c-10.9-4.1-21.1-9.5-31.9-13.8c-5.6-2.2-11.3-4.2-17.2-5.5c-5.3-1.2-10.6-1.6-16-1.3
		c-5.3,0.3-10.5,1.1-15.4,3.3c-6,2.7-11.2,6.4-15.5,11.5c-0.6,0.8-1.2,1.6-1.7,2.5c-0.3,0.5-0.6,1-0.6,1.7c-0.1,0.8-0.6,1.1-1.3,1
		c-0.7-0.1-1.1-0.6-1-1.4c0.1-0.8,0.4-1.6,0.8-2.4c0.8-1.6,1.8-3,3-4.3c5.9-6.6,13.2-11,21.8-13c5.7-1.3,11.5-1.7,17.3-1.4
		c5.9,0.3,11.7,1.7,17.3,3.4c7.9,2.4,15.4,5.7,22.9,9.1c5.6,2.5,11.2,5.2,17,7.4C268.7,252,269.1,252.1,269.6,252.2z M132.9,255.1
		c0.4,0.1,0.7-0.1,1-0.3c4-1.8,8-3.5,12-5.4c3.9-1.8,7.7-3.7,11.2-6.1c2.2-1.5,4.2-3.1,5.8-5.2c1-1.3,1.9-2.6,2.2-4.2
		c0.5-1.9,0.1-3.7-1.3-5.1c-1.3-1.3-2.8-2.1-4.7-2.2c-1.9-0.1-3.6,0.4-5.3,1.1c-3.7,1.7-6.9,4.2-9.6,7.2
		c-4.8,5.4-8.3,11.6-10.9,18.3C133.2,254,132.9,254.5,132.9,255.1z M193.4,290.8c0,2.7,0.3,5.4,1.4,8c0.2,0.6,0.5,1.1,1,1.5
		c0.6,0.6,1.1,0.7,1.8,0.3c0.6-0.3,1.1-0.7,1.5-1.1c1.5-1.5,2.8-3.2,3.9-5c2.9-4.7,5.1-9.7,7.8-14.5c0.2-0.4,0.2-0.8,0-1.2
		c-1.5-3-3.9-4.9-7.1-5.8c-1.7-0.5-3.3-0.1-4.6,1.2c-1.4,1.4-2.4,3-3.2,4.7C194.2,282.7,193.4,286.7,193.4,290.8z M226.9,260.1
		c0,0.4,0.1,1.1,0.2,1.7c0.3,1.6,1.3,2.7,2.6,3.6c2.7,1.9,5.8,2.1,8.9,2.4c0.4,0,0.4-0.2,0.4-0.6c-0.5-4.1-1.7-7.9-4.3-11.2
		c-0.7-0.9-1.5-1.7-2.5-2.4c-1.6-1-2.6-0.8-3.7,0.7C227.4,256.1,227,257.9,226.9,260.1z M167.2,282c0,0.4-0.1,0.9-0.1,1.3
		c0,0.9,0.1,1,0.9,0.9c2.2-0.3,4.4-0.7,6.5-1.5c2.4-0.9,3-2.8,2.6-4.9c-0.4-2-1.6-3.4-3.1-4.7c-0.8-0.6-1.6-1.1-2.6-1.4
		c-1.1-0.3-1.6-0.1-2.2,0.9c-0.4,0.7-0.7,1.4-0.9,2.1C167.6,277.1,167.3,279.5,167.2,282z"/>
	<g>
		<g>
			<path class="st3" d="M236.8,224c-0.4,0.4-0.9,0.8-1.3,1.2c-1.3,1.1-2.8,1.4-4.5,0.9c-2.4-0.7-4.1-2.8-4.4-5.3
				c-0.2-2.1,0.1-4.1,0.8-6c0.4-1.1,1.1-1.6,1.9-1.5c1.1,0.1,1.9,1,1.9,2.1c0,1.6,0,3.1-0.1,4.7c0,0.7-0.1,1.4,0.1,2.2
				c0.2,1.2,1.1,1.7,2.2,1.2c0.9-0.4,1.6-1.2,2.2-2c0.9-1.2,1.8-2.4,2.7-3.7c1-1.4,2.3-1.5,3.5-0.1c0.4,0.5,0.7,1.1,0.8,1.7
				c0.3,1.5,0,3-0.3,4.4c-0.5,1.9-1.2,3.8-2.1,5.6c-0.6,1.1-1.3,2.1-2.2,3c-2.6,2.7-7.3,2.3-9.7,0.6c-0.9-0.6-1.5-1.5-1.7-2.5
				c-0.1-0.9,0-1.7,0.7-2.3c0.4-0.4,0.9-0.5,1.4-0.2c0.5,0.4,0.6,0.8,0.3,1.3c-0.4,0.8-0.1,1.6,0.8,1.9c1.8,0.8,3.6,0.2,4.5-0.9
				c0.4-0.6,0.9-1.2,1.2-1.8c0.3-0.6,0.5-1.2,0.8-1.8c0.3-0.9,0.6-1.7,0.9-2.6C236.9,224.1,236.9,224,236.8,224z"/>
			<path class="st3" d="M240.7,231.1c0.2-2.6,0.9-5.3,2.5-7.6c1-1.4,2.3-2.4,4.1-2.7c0.8-0.1,1.6,0,2.4,0.2
				c5.7,1.8,5.3,8.4,2.5,13.7c-0.8,1.4-1.8,2.6-3.2,3.5c-1.6,1.1-3.3,1.1-4.9,0C241.7,236.6,240.7,234.2,240.7,231.1z M244.9,232.8
				c0,0.5,0.1,1,0.1,1.5c0.1,0.4,0.2,0.8,0.3,1.1c0.5,1.3,1.1,1.5,2.3,0.7c0.8-0.5,1.3-1.1,1.8-1.9c4.3-6.9,1.6-12.4-1.5-9.5
				c-0.3,0.3-0.6,0.6-0.8,1C245.7,227.9,245,230.3,244.9,232.8z"/>
			<path class="st3" d="M257.5,240.3c1-1.1,1.6-2.3,2.1-3.5c0.9-2.3,1.7-4.6,2.6-6.9c0.2-0.5,0.4-1,0.6-1.4c0.3-0.5,0.8-0.7,1.3-0.4
				c0.5,0.2,0.7,0.6,0.5,1.2c-1.1,3.6-1.9,7.3-3.7,10.6c-0.4,0.8-0.9,1.6-1.5,2.3c-1.4,1.6-3.3,1.6-4.8,0.1
				c-1.1-1.2-1.6-2.6-1.6-4.3c-0.1-3.6,0.9-6.9,2.5-10.1c0.2-0.3,0.4-0.6,0.6-0.9c0.7-1,1.4-1.2,2.3-0.9c0.9,0.4,1.3,1.2,1.1,2.4
				c-0.2,1.2-0.6,2.3-0.8,3.5c-0.6,2.4-1.1,4.8-1.4,7.3C257.3,239.5,257.2,239.9,257.5,240.3z"/>
			<path class="st3" d="M268.8,233.4c0.9-0.6,1.7-1.2,2.7-1.6c1.2-0.5,2.3-0.5,3.5,0.1c0.7,0.4,1.3,0.8,1.9,1.3
				c0.4,0.4,0.7,0.8,0.9,1.3c0.3,1-0.2,1.6-1.2,1.5c-0.3,0-0.5-0.1-0.8-0.2c-0.4-0.2-0.7-0.4-1-0.7c-1.2-1.1-1.3-1.1-2.8-0.3
				c-0.6,0.3-1.1,0.8-1.6,1.2c-2,2-3.7,4.2-4.3,7.1c-0.1,0.5-0.2,0.9-0.4,1.4c-0.3,0.7-0.9,1.1-1.6,0.9c-1.2-0.2-2.1-1.3-1.9-2.5
				c0.6-3.3,1.4-6.6,2.7-9.8c0.1-0.3,0.3-0.6,0.4-0.9c0.3-0.6,0.7-1,1.5-1c0.8,0,1.3,0.4,1.6,1.1C268.5,232.6,268.6,233,268.8,233.4
				z"/>
		</g>
		<g>
			<path class="st3" d="M189.9,225.3c0.1-1.4-0.2-2.7-0.3-4.1c-0.2-2.1-0.5-4.2-1-6.3c-0.1-0.6-0.2-1.3,0.4-1.7
				c0.7-0.4,1.4-0.3,2,0.1c0.6,0.4,1,1,1.1,1.8c0.3,2.1,0.6,4.1,0.9,6.2c0.3,2.2,0.6,4.4,1.2,6.5c0.5,1.8-0.3,2.7-2.2,2.6
				c-1-0.1-1.9-0.5-2.8-0.9c-2.7-1.3-5.3-2.9-8-4.3c-0.3-0.1-0.5-0.4-0.9-0.4c0.1,0.5,0.4,0.9,0.6,1.4c0.9,1.6,1.7,3.2,2.3,4.9
				c0.1,0.3,0.2,0.5,0.3,0.8c0.2,0.6,0.4,1.3-0.3,1.8c-0.6,0.5-1.3,0.4-1.9,0.2c-0.8-0.3-1.3-0.9-1.6-1.7c-1-3.3-2.7-6.2-4.5-9.1
				c-0.4-0.7-0.7-1.3-1-2.1c-0.4-1.1,0.2-1.9,1.3-2.1c0.7-0.1,1.4-0.1,2,0.2c0.7,0.3,1.5,0.6,2.2,0.9c3,1.5,6.1,3,9,4.8
				C189.1,224.9,189.4,225.2,189.9,225.3z"/>
			<path class="st3" d="M216.9,227c-0.3,0.9-0.8,1.8-1.5,2.6c-1.4,1.5-3.4,1.9-5.3,0.9c-1.1-0.5-1.9-1.3-2.5-2.4
				c-2.2-3.9-2.4-9.4,0.4-13.4c0.3-0.5,0.7-0.9,1.2-1.3C213.5,209.8,221.3,215,216.9,227z M210.5,222.8c0,0.6,0,1.1,0.1,1.6
				c0.1,1.1,0.3,2.2,0.8,3.2c0.3,0.6,0.6,0.7,1.1,0.3c0.7-0.5,1.1-1.2,1.4-2c3.2-7.7,0.1-11.9-1.8-9.2
				C210.8,218.5,210.6,220.7,210.5,222.8z"/>
			<path class="st3" d="M200.7,211.8c0.9,0.1,1.7,0.2,2.5,0.2c0.1,0,0.2,0,0.2,0c0.9,0.2,1.6,1,1.5,1.6c0,0.5-0.8,1-1.6,1.2
				c-0.6,0.1-1.1,0.2-1.7,0.2c-0.5,0-0.7,0.2-0.6,0.7c0.5,2.3,0.6,4.6,0.8,6.9c0.1,1.7,0.1,3.4,0.1,5.1c0,1.4-1,2-2.3,1.6
				c-1.1-0.4-1.8-1.1-2-2.3c-0.5-3.6-1.1-7.2-1-10.8c0-1.2,0-1.2-1.1-1.1c-0.7,0.1-1.4,0-1.9-0.5c-0.7-0.6-0.7-1.3,0.1-1.9
				c0.9-0.6,1.9-0.7,2.8-0.8C197.9,212,199.3,212,200.7,211.8z"/>
			<path class="st3" d="M168.4,221.9c0.8,0,1.4,0.3,1.9,0.8c0.7,0.6,1.3,1.2,1.8,2c1.6,2.4,3.2,4.8,4.7,7.4c0.5,0.8,0.9,1.6,1.2,2.5
				c0.5,1.4-0.4,2.5-1.9,2.2c-1-0.2-1.9-0.6-2.4-1.5c-1.8-3-3.9-5.7-5.4-8.9c-0.4-0.8-0.8-1.6-1.2-2.5
				C166.6,222.6,167.2,221.8,168.4,221.9z"/>
		</g>
	</g>
	<g>
		<path class="st0" d="M214,192.8c0.8-0.6,1.5-1.1,2.1-1.7c3.3-2.6,6.7-4.9,9.9-7.5c1.3-1.1,2-2.1,2-3.9c0-2.8,0.4-5.6,0.6-8.4
			c0-0.3,0.1-0.6-0.1-0.9c-0.8,0-1.6,0.4-2.4,0.6c-1.2,0.2-2.3,0.6-3.5,0.6c-0.5,0-1-0.1-1.4-0.3c-0.6-0.4-0.6-1,0-1.4
			c0.4-0.3,0.9-0.5,1.4-0.6c1.8-0.6,3.6-1.3,5.4-1.9c0.7-0.2,1-0.5,1.1-1.3c0.4-3.4,0.8-6.7,1.6-10c0.3-1.2,0.8-2.4,1.3-3.6
			c0.2-0.5,0.5-0.9,0.9-1.3c1-1,2.6-0.6,3.1,0.8c0.2,0.5,0.2,1,0.2,1.5c0.1,3.5-0.1,7-0.4,10.4c0,0.4-0.2,0.9,0,1.4
			c1.5-0.3,3.1-0.6,4.6-0.9c0.8-0.2,1.6-0.3,2.5-0.4c0.5-0.1,1,0,1.5,0.4c0.7,0.6,0.7,1.4-0.2,1.8c-0.9,0.4-1.9,0.7-3,1
			c-1.5,0.4-3.1,0.8-4.6,1.2c-1.1,0.3-1.1,0.3-1.2,1.4c-0.4,6.3-0.8,12.6-0.6,18.9c0.1,3.2,0.2,6.4,0.9,9.5c0.4,2.1,0.9,4.1,1.7,6.1
			c0.3,0.7,0.6,1.4,1.1,2.1c0.7-0.4,1-1,1.3-1.6c1-1.7,1.7-3.4,2.4-5.2c1.2-3.2,2.3-6.5,3.4-9.7c0.2-0.7,0.3-1.4,0.4-2.1
			c0.1-2.8,0.1-5.5,0.6-8.2c0.1-0.5,0.2-1,0.4-1.5c0.6-1.5,2.1-1.9,3.5-1c0.6,0.4,0.9,1.1,1.2,1.7c0.3-0.2,0.3-0.5,0.4-0.8
			c0.7-2.4,1.3-4.8,2.1-7.1c0.3-0.8,0.5-1.5,0.9-2.2c0.6-1,1.5-1.3,2.7-1c1.2,0.3,2,1.2,2.6,2.2c0.8,1.4,1.2,2.9,1.5,4.4
			c0.5,2.3,0.9,4.5,1.3,7c0.4-0.8,0.5-1.6,0.6-2.4c1.5-7.2,4.4-13.8,8.5-19.9c0.7-1,1.4-2,2.3-2.7c1.4-1.2,2.9-1.3,4.5-0.3
			c1,0.7,1.7,1.7,2.2,2.8c0.6,1.5,0.9,3.1,1,4.7c0.1,3.1-0.2,6.2-0.6,9.3c-1,7.7-1.9,15.3-2.6,23c-0.4,4.7-0.7,9.4-0.8,14.1
			c0,0.4-0.1,0.8,0.1,1.3c0.3-0.3,0.3-0.7,0.5-1.1c1.6-4.8,2.8-9.7,4.1-14.5c0.8-3.2,1.5-6.5,2.4-9.6c0.7-2.3,0.9-4.7,1.2-7.1
			c0.3-2.7,1.1-5.2,2.4-7.6c0.8-1.5,1.8-2.8,3.1-3.9c3.2-2.7,7.6-2.3,10.5,0.8c0.3,0.3,0.5,0.6,0.9,1c0.5-0.7,0.6-1.4,0.9-2
			c0.5-1,1.1-1.3,2.1-1c1.4,0.4,2.1,1.4,2.3,2.8c0.2,1.8,0.1,3.7-0.1,5.5c-0.4,3.5-1.2,6.9-1.7,10.4c-0.6,3.8-0.9,7.5-1,11.3
			c0,1.4,0.1,2.7,0.4,4c0.2,0.9,0.4,0.9,1.1,0.4c1-0.7,1.9-1.6,2.7-2.6c3.6-4.3,6.4-9.2,9-14.1c0.3-0.5,0.1-1-0.1-1.5
			c-1.2-3.1-2.3-6.2-3.1-9.4c-1.1-4.6-1.3-9.1,0.1-13.6c0.8-2.4,1.9-4.7,3.4-6.7c0.7-0.9,1.4-1.6,2.3-2.3c2.2-1.4,4.5-1,6,1.1
			c1,1.5,1.4,3.1,1.5,4.9c0.3,3.7-0.3,7.3-1.3,10.9c-1,3.5-2.1,7-3.5,10.4c-0.3,0.7-0.3,1.3,0,1.9c1.5,3.8,3.2,7.5,4.7,11.3
			c1.4,3.6,2.7,7.2,3.1,11c0.3,2.1,0.4,4.3-0.1,6.4c-1.1,4-3.4,6.8-7.5,7.9c-2.4,0.7-4.6,0-6.2-2c-1.4-1.7-1.3-3.6-1-5.6
			c0.1-0.4,0.3-0.7,0.7-1c0.3-0.2,0.7-0.2,1-0.1c0.4,0.2,0.4,0.5,0.4,0.9c0,0.5,0,1,0,1.6c0,1.4,0.8,2.3,1.8,3
			c0.5,0.4,1,0.3,1.5-0.1c0.7-0.6,1.1-1.3,1.5-2.1c0.6-1.4,0.8-2.8,0.9-4.3c0.3-3.8-0.2-7.6-1.3-11.3c-0.9-3-2-6-3.3-9
			c-0.4,0.3-0.5,0.8-0.7,1.1c-2.2,4-4.6,8-7.4,11.6c-1,1.3-2,2.5-3.3,3.5c-0.8,0.6-1.6,1-2.6,1.1c-2,0.2-3.6-0.6-4.8-2.1
			c-1.4-1.6-2.1-3.6-2.5-5.6c-0.5-2.5-0.4-4.9-0.1-7.4c0.1-0.5,0.2-1.1,0.1-1.7c-0.4,0.1-0.4,0.4-0.5,0.7c-0.6,1.1-1.1,2.3-1.7,3.4
			c-0.4,0.8-0.9,1.5-1.5,2.2c-1.9,2.4-4.7,2.3-6.6,0c-0.6-0.8-1.1-1.7-1.4-2.6c-0.2-0.5-0.3-1-0.6-1.6c-0.3,0.5-0.3,0.9-0.4,1.3
			c-1.7,7.5-3.5,15-5.7,22.4c-0.3,1.1-0.8,2.3-1.3,3.4c-0.5,1.1-1.4,1.8-2.6,1.8c-1.2,0-2-0.7-2.6-1.7c-1-1.9-1.6-3.9-2-6
			c-0.9-4.7-0.9-9.4-0.5-14.1c0.6-8.5,1.8-16.8,3.3-25.2c0.6-3.3,1.3-6.5,1.7-9.8c0.1-0.7,0.2-1.4,0-2.2c-0.6,0.1-0.9,0.5-1.2,0.9
			c-1.3,1.4-2.4,3.1-3.4,4.8c-3.5,5.8-5.7,12.1-6.6,18.8c-0.4,3-0.6,6-0.6,9.1c0,1.3-0.1,1.7-1,2c-1,0.3-2.1-0.2-2.7-1.1
			c-0.3-0.5-0.5-1-0.6-1.5c-1-3.2-1.6-6.6-2.1-9.9c-0.4-2.7-0.7-5.4-1.2-8.1c0-0.2-0.1-0.4-0.2-0.6c-0.4,0.2-0.4,0.6-0.5,0.8
			c-1.8,4.8-3.1,9.7-3.8,14.8c-0.2,1.8,0,3.7,0.1,5.5c0.1,2.6,0.2,5.2,0.1,7.8c-0.1,1.5-0.4,2.1-1.4,2.3c-1.1,0.3-2.4-0.2-3.1-1.1
			c-0.3-0.5-0.5-1.1-0.7-1.6c-0.6-1.7-1-3.4-1.2-5.1c0-0.2,0-0.5-0.2-0.7c-0.3,0.3-0.4,0.6-0.5,0.9c-0.8,2.5-1.6,5-2.4,7.5
			c-0.4,1.1-0.8,2.2-1.4,3.2c-1.5,2.4-3.9,3-6.4,1.7c-0.6-0.3-1.2-0.8-1.7-1.3c-2.8-2.7-4.7-5.9-5.3-9.8c-0.6-3.7-0.8-7.5-0.8-11.2
			c0-0.4,0-0.7,0-1.1c0-0.1-0.1-0.1-0.1-0.2c-0.2-0.1-0.3,0-0.4,0.1c-3,2.6-6.3,4.9-9.5,7.3c-0.8,0.6-1.5,1.3-2.3,1.9
			c-0.4,0.3-0.5,0.6-0.3,1.1c0.8,1.9,1.4,3.8,1.5,5.8c0.1,1.1,0,2.2-0.3,3.2c-0.9,2.5-3.5,4-6,3.4c-1.6-0.4-2.5-1.5-2.7-3.1
			c-0.1-2,0.4-3.8,1.3-5.5c0.5-1,0.5-1.8,0-2.7c-1.2-2.4-2.4-4.8-3.6-7.3c-0.4,0.5-0.5,0.9-0.6,1.4c-1,3.6-2.2,7.2-3.8,10.6
			c-0.4,0.7-0.7,1.4-1.2,2.1c-0.9,1.4-2.2,1.7-3.7,1c-0.7-0.3-1.4-0.8-1.9-1.4c-2.7-2.9-4.3-6.3-5-10.2c-0.1-0.7-0.2-1.3-0.3-2.1
			c-0.5,0-0.5,0.5-0.6,0.8c-1.5,3.6-2.9,7.2-4.1,10.9c-0.4,1.2-0.8,2.3-1.4,3.4c-0.3,0.6-0.6,1.2-1.1,1.7c-1.2,1.5-2.7,1.9-4.5,1.2
			c-1.4-0.6-2.4-1.6-3.1-2.9c-1.2-2.1-1.6-4.3-1.4-6.7c0.2-2.9,0.6-5.7,1.2-8.5c0.9-4.3,1.9-8.7,3.6-12.8c0.3-0.7,0.3-1-0.6-1.1
			c-1.2-0.2-2.4-0.2-3.6-0.4c-0.7-0.1-1.4-0.1-2-0.2c-0.9-0.2-1-0.1-1,0.8c-0.1,2.5-0.4,4.9-0.8,7.4c-1.4,8.4-3.5,16.6-7,24.4
			c-0.8,1.8-1.6,3.5-2.8,5c-0.5,0.6-1,1.3-1.6,1.8c-1.7,1.6-4,1.6-5.7,0.1c-1.6-1.4-2.1-3.2-2.3-5.2c-0.2-2.3,0.1-4.5,0.6-6.8
			c0.7-3.4,1.5-6.8,2.2-10.2c0.2-0.7,0.3-1.5,0.3-2.3c-0.5-0.1-0.9,0.2-1.2,0.4c-1.6,1-2.9,2.3-4.1,3.7c-2.8,3.4-4.6,7.3-5.9,11.4
			c-0.3,1.1-0.7,2.1-0.9,3.2c-0.5,2.2-2.2,2.7-4.3,2.1c-1-0.3-1.8-1-2.4-1.9c-1.2-1.6-2-3.3-2.5-5.3c-1.2-5-1.7-10.2-1.7-15.3
			c0-5.5,0.8-10.9,2.7-16.1c1-2.7,2.3-5.3,4.1-7.6c1.8-2.3,4-4.1,7-4.6c4.2-0.7,6.9,1.9,6.9,5.6c0,1.7-0.4,3.3-1.1,4.9
			c-1.3,3-3.2,5.6-5.4,8c-1.9,2.1-4,4-6.3,5.7c-0.5,0.4-0.8,0.8-0.8,1.5c-0.2,6.2,0.4,12.3,2,18.3c0,0.1,0.1,0.2,0.2,0.3
			c0.3-0.2,0.4-0.5,0.5-0.8c1.2-2.5,2.2-5.1,3.6-7.4c1.7-2.8,3.6-5.3,6.2-7.5c0.6-0.5,1.3-1,2.1-1.4c2.8-1.3,5.7-0.2,6.9,2.7
			c0.6,1.5,0.7,3.1,0.6,4.7c-0.2,2.7-0.8,5.3-1.2,7.9c-0.4,2.7-0.8,5.4-1.3,8.2c0,0.2,0,0.4,0,0.7c0.6-0.3,0.8-0.7,1.2-1.1
			c1.1-1.4,1.9-3,2.6-4.6c2.9-6.3,4.9-13,6.2-19.8c0.7-3.3,1.2-6.7,1.3-10.1c0.1-1.4,0.1-1.2-1.1-1.5c-2-0.5-3.9-1.3-5.7-2.5
			c-4.3-2.9-3.2-7.2-1.1-9.5c1.5-1.7,3.6-2,5.5-0.8c1.2,0.7,2,1.8,2.7,3c1.2,2,1.7,4.2,2,6.5c0,0.3,0,0.6,0.1,1
			c0.1,0.9,0.1,0.8,1,0.9c2,0.3,4,0.1,6,0.5c0.7,0.1,1.3,0.2,2,0.4c2,0.6,3.1,2,3.5,4c0.3,2,0,4-0.4,6c-0.6,3.4-1.3,6.7-1.9,10.1
			c-0.6,3-0.7,6.1-0.7,9.2c0,0.2,0,0.4,0.1,0.7c0.5-0.2,0.6-0.6,0.7-0.9c1.1-2.1,1.9-4.3,2.8-6.5c1.6-3.8,3.1-7.6,5-11.3
			c0.3-0.5,0.3-1.1,0.3-1.6c0.1-2.2,0.3-4.3,0.7-6.4c0.2-1.2,0.6-2.3,1.3-3.3c0.6-1,1.3-1.3,2.2-1.2c1,0.2,1.7,1,1.8,2.1
			c0.1,1.2,0.2,2.4,0.2,3.6c0,3.7,0.1,7.4,0.3,11.2c0.1,2.6,0.2,5.1,0.7,7.6c0.3,1.5,0.8,2.8,1.5,4.1c0.5-0.4,0.7-0.9,0.9-1.3
			c0.9-1.9,1.7-3.9,2.3-5.9c0.9-2.9,2-5.7,3.1-8.5c0.2-0.5,0.3-1,0.1-1.6c-1.2-5.4-0.9-10.8,1.1-16c0.8-1.9,1.7-3.7,3-5.3
			c0.6-0.8,1.4-1.5,2.2-2c2.4-1.6,5.1-1.1,6.8,1.2c1.3,1.8,1.5,3.8,1.1,5.8c-0.3,2-1.2,3.9-2.2,5.7c-1.5,2.8-3.4,5.4-5.4,7.9
			c-0.7,0.8-0.7,1.5-0.5,2.5C211,187.3,212.4,190,214,192.8z M293.1,191.6c0.6-0.2,1-0.7,1.4-1.2c1.4-1.6,2.3-3.5,3.1-5.4
			c1.6-3.8,2.9-7.6,4.4-11.4c0.4-1,0.3-1.8-0.4-2.6c-0.2-0.3-0.4-0.6-0.7-0.8c-1.3-1.3-2.3-1.3-3.6-0.1c-0.4,0.4-0.8,0.8-1.1,1.2
			c-0.6,0.8-1,1.6-1.4,2.5c-1.7,4.3-2.4,8.7-2.3,13.3C292.4,188.6,292.5,190.2,293.1,191.6z M323.2,174.9c0.4-1.2,0.9-2.4,1.3-3.6
			c1.2-3.6,2.3-7.2,2.6-11c0.2-2.3,0.1-4.5-0.7-6.6c-0.6-1.6-1-1.6-2.1-0.4c-1.3,1.5-2.1,3.3-2.6,5.2
			C320.4,164,321.2,169.5,323.2,174.9z M137.7,181.4c0.3-0.1,0.4-0.2,0.5-0.2c3-2.6,5.8-5.5,7.8-9c0.9-1.6,1.6-3.2,1.9-5
			c0.1-0.8,0.1-1.6-0.1-2.4c-0.3-1-0.7-1.2-1.7-0.9c-1.1,0.3-2.1,1-2.9,1.8c-1.2,1.2-2,2.7-2.6,4.2
			C139.1,173.5,138.4,177.4,137.7,181.4z M209.3,178.3c0.1,0,0.2-0.1,0.3-0.2c2.3-2.9,4.4-6,5.6-9.6c0.4-1,0.6-2.1,0.6-3.2
			c0-0.7-0.2-1.4-0.5-1.9c-0.4-0.6-0.8-0.7-1.5-0.3c-0.4,0.2-0.8,0.6-1.1,1c-0.6,0.8-1.2,1.6-1.6,2.5c-1.6,3.5-2.1,7.3-1.9,11.1
			C209.1,178,209.1,178.2,209.3,178.3z M167.9,173.2c0.1-1.5-0.2-3.5-0.8-5.1c-0.4-1.3-1.1-2.4-2-3.4c-0.8-0.8-1.4-0.8-2.2,0.1
			c-0.7,0.8-1.1,1.8-1.3,2.8c-0.3,1.4,0.1,2.6,1.3,3.5C164.4,172.2,166,172.8,167.9,173.2z M210.6,201.9c-0.3,1-0.7,2.1,0,3.2
			C211.1,204,211,203,210.6,201.9z"/>
		<path class="st0" d="M99.3,189.4c0.1-6.8,0.8-13.8,3.1-20.6c1.3-3.7,3-7.2,5.5-10.3c1-1.2,2.2-2.2,3.8-2.7c2-0.6,3.9-0.1,5.6,0.9
			c1.4,0.8,2.5,1.9,3.4,3.2c2.8,4,4.3,8.5,4.2,13.4c0,1.1-0.2,2.1-0.3,3.2c-0.1,0.5-0.2,1.1-0.9,1.1c-0.6,0.1-1.2-0.4-1.4-1.1
			c-0.1-0.5-0.2-1-0.3-1.5c-0.2-2.4-0.6-4.8-1.2-7.2c-0.6-2.1-1.4-4.2-2.7-6c-0.5-0.7-1-1.4-1.8-1.9c-1.1-0.8-2-0.7-2.9,0.3
			c-0.8,0.9-1.4,2-1.9,3.1c-1.7,4-3.1,8-4,12.3c-1.6,7.5-1.8,15-1,22.5c0.6,5.6,1.8,11.1,3.9,16.4c0.4,1,0.8,1.9,1.3,2.8
			c0.5,1,1.2,1.8,2.1,2.4c0.7,0.5,1.4,0.4,2.1-0.1c0.7-0.5,1.2-1.2,1.7-1.8c1.9-2.6,3.1-5.5,4.3-8.4c0.6-1.5,1.1-3.1,1.8-4.6
			c0.2-0.4,0.4-0.8,0.8-1c0.5-0.2,0.9-0.1,1.2,0.2c0.3,0.3,0.3,0.6,0.2,1c-0.1,0.3-0.2,0.5-0.3,0.8c-1,2.5-1.9,4.9-2.9,7.4
			c-0.9,2.4-2.2,4.6-3.7,6.7c-2,2.7-4.5,3.4-7.7,2.2c-3.5-1.4-6-3.8-7.7-7.2c-1.5-3.1-2.5-6.3-3.1-9.7
			C99.8,199.9,99.3,194.8,99.3,189.4z"/>
		<path class="st0" d="M193.3,167.6c-1.3,0-2.3-0.5-3.1-1.5c-1-1.3-0.6-2.8,0.9-3.4c0.8-0.3,1.6-0.7,2.5-0.6c0.3,0,0.6,0.1,0.9,0.2
			c1.4,0.5,2.2,1.7,2.1,2.9C196.4,166.4,194.8,167.6,193.3,167.6z"/>
	</g>
</g>
</svg>
